STARTFONT 2.1
FONT big5.7600.16
SIZE 16 72 72
FONTBOUNDINGBOX 16 16 0 -2
STARTPROPERTIES 4
FONT_DESCENT 2
FONT_ASCENT 14
DEFAULT_CHAR 0
COPYRIGHT "Copyright (c) 1992 AT&T - All rights reserved."
ENDPROPERTIES
CHARS 336
STARTCHAR ch-0
ENCODING 0
SWIDTH 1000 0
DWIDTH 16 0
BBX 16 16 0 -2
BITMAP
0040
0022
0fff
0900
4888
2ff4
0914
0914
19d6
2963
6958
1250
154c
2884
0000
0000
ENDCHAR
STARTCHAR ch-1
ENCODING 1
SWIDTH 1000 0
DWIDTH 16 0
BBX 16 16 0 -2
BITMAP
0040
0fff
0840
4820
2bfe
2888
0888
1956
2a22
6820
0fff
1020
2020
0020
0000
0000
ENDCHAR
STARTCHAR ch-3
ENCODING 3
SWIDTH 1000 0
DWIDTH 16 0
BBX 16 16 0 -2
BITMAP
0040
0fff
0800
4ffe
2840
2984
0e4c
1ab0
2920
6ef0
08a8
1127
1622
2040
0000
0000
ENDCHAR
STARTCHAR ch-8
ENCODING 8
SWIDTH 1000 0
DWIDTH 16 0
BBX 16 16 0 -2
BITMAP
0020
1fff
1100
57df
3109
17c9
3109
57d1
1106
1020
17ff
2088
4104
0603
0000
0000
ENDCHAR
STARTCHAR ch-9
ENCODING 9
SWIDTH 1000 0
DWIDTH 16 0
BBX 16 16 0 -2
BITMAP
0040
1fff
10f0
1108
5204
37fe
1801
33c4
5254
13d4
1254
23d4
4244
044c
0000
0000
ENDCHAR
STARTCHAR ch-10
ENCODING 10
SWIDTH 1000 0
DWIDTH 16 0
BBX 16 16 0 -2
BITMAP
0040
0020
0fff
4978
2a08
2aff
0e20
1a7e
2a90
6a10
0bff
1228
2247
0382
0000
0000
ENDCHAR
STARTCHAR ch-11
ENCODING 11
SWIDTH 1000 0
DWIDTH 16 0
BBX 16 16 0 -2
BITMAP
0080
0040
1ffe
1000
57fc
3404
15f4
1444
35f4
5554
15f4
1445
2855
51f3
0000
0000
ENDCHAR
STARTCHAR ch-12
ENCODING 12
SWIDTH 1000 0
DWIDTH 16 0
BBX 16 16 0 -2
BITMAP
0040
0020
0fff
0880
4ff1
2889
2be9
1aa9
2be9
6889
09c9
12a1
2085
0082
0000
0000
ENDCHAR
STARTCHAR ch-13
ENCODING 13
SWIDTH 1000 0
DWIDTH 16 0
BBX 16 16 0 -2
BITMAP
0020
1fff
13fe
1202
53fe
3202
13fe
3000
57ff
1100
11ff
2649
4091
0126
0000
0000
ENDCHAR
STARTCHAR ch-15
ENCODING 15
SWIDTH 1000 0
DWIDTH 16 0
BBX 16 16 0 -2
BITMAP
0040
1fff
1040
5044
33fc
1050
37ff
5040
11fc
1104
13fc
2504
01fc
0104
0000
0000
ENDCHAR
STARTCHAR ch-16
ENCODING 16
SWIDTH 1000 0
DWIDTH 16 0
BBX 16 16 0 -2
BITMAP
0040
1fff
1140
565c
3444
1444
175c
3444
5444
17fc
10a0
2110
460f
1802
0000
0000
ENDCHAR
STARTCHAR ch-17
ENCODING 17
SWIDTH 1000 0
DWIDTH 16 0
BBX 16 16 0 -2
BITMAP
0020
1fff
1000
51fc
3104
113c
3124
57ff
1401
14f9
2489
44f9
0401
0403
0000
0000
ENDCHAR
STARTCHAR ch-19
ENCODING 19
SWIDTH 1000 0
DWIDTH 16 0
BBX 16 16 0 -2
BITMAP
0020
1fff
1100
13fc
5410
33fe
1222
3252
528a
1222
17ff
1088
2104
4202
0000
0000
ENDCHAR
STARTCHAR ch-20
ENCODING 20
SWIDTH 1000 0
DWIDTH 16 0
BBX 16 16 0 -2
BITMAP
0020
1fff
1000
5104
37ff
1104
3020
57ff
1020
13fe
1202
2202
43fe
0202
0000
0000
ENDCHAR
STARTCHAR ch-21
ENCODING 21
SWIDTH 1000 0
DWIDTH 16 0
BBX 16 16 0 -2
BITMAP
0040
0020
0fff
0800
4bde
2a42
0bde
1a00
2bde
6a12
13d4
1208
2217
0262
0000
0000
ENDCHAR
STARTCHAR ch-22
ENCODING 22
SWIDTH 1000 0
DWIDTH 16 0
BBX 16 16 0 -2
BITMAP
0020
1fff
1000
1020
57ff
3104
1088
37ff
5000
13fe
1202
23fe
4202
03fe
0000
0000
ENDCHAR
STARTCHAR ch-25
ENCODING 25
SWIDTH 1000 0
DWIDTH 16 0
BBX 16 16 0 -2
BITMAP
0040
1fff
1000
57fc
3248
14e0
3110
5e4f
13fa
1248
23f8
2044
4ffe
0002
0000
0000
ENDCHAR
STARTCHAR ch-26
ENCODING 26
SWIDTH 1000 0
DWIDTH 16 0
BBX 16 16 0 -2
BITMAP
0040
1fff
1000
1448
5288
37cf
1111
1105
3544
5544
17c4
2104
420a
0431
0000
0000
ENDCHAR
STARTCHAR ch-27
ENCODING 27
SWIDTH 1000 0
DWIDTH 16 0
BBX 16 16 0 -2
BITMAP
0040
1fff
1100
57df
3105
17c5
1105
17c9
3111
5106
1000
1522
2509
48f9
0000
0000
ENDCHAR
STARTCHAR ch-28
ENCODING 28
SWIDTH 1000 0
DWIDTH 16 0
BBX 16 16 0 -2
BITMAP
0040
1fff
1080
53fc
3204
13fc
1204
33fc
5204
13fc
1524
1512
2904
40fc
0000
0000
ENDCHAR
STARTCHAR ch-29
ENCODING 29
SWIDTH 1000 0
DWIDTH 16 0
BBX 16 16 0 -2
BITMAP
0020
1fff
1000
57ff
3489
1489
17ff
1020
30a8
5124
1222
20a8
4124
0222
0000
0000
ENDCHAR
STARTCHAR ch-30
ENCODING 30
SWIDTH 1000 0
DWIDTH 16 0
BBX 16 16 0 -2
BITMAP
0040
1fff
1040
57fe
3108
1294
1462
3090
5148
1e47
13fa
1040
2040
4ffe
0000
0000
ENDCHAR
STARTCHAR ch-31
ENCODING 31
SWIDTH 1000 0
DWIDTH 16 0
BBX 16 16 0 -2
BITMAP
0080
0042
0fff
0800
49fc
2904
29fc
0904
19fc
2800
6bfe
0a52
1252
27ff
0000
0000
ENDCHAR
STARTCHAR ch-32
ENCODING 32
SWIDTH 1000 0
DWIDTH 16 0
BBX 16 16 0 -2
BITMAP
0080
1fff
1444
5248
34a4
1110
37ff
5a0a
13f8
1208
23f8
2208
4228
0210
0000
0000
ENDCHAR
STARTCHAR ch-33
ENCODING 33
SWIDTH 1000 0
DWIDTH 16 0
BBX 16 16 0 -2
BITMAP
0040
1fff
1070
5088
3174
13fa
1509
31f8
5108
11f8
1200
25fc
4904
01fc
0000
0000
ENDCHAR
STARTCHAR ch-34
ENCODING 34
SWIDTH 1000 0
DWIDTH 16 0
BBX 16 16 0 -2
BITMAP
0080
1fff
1200
57bc
34a4
16a4
15a7
3fc0
54bc
16a4
15a8
2498
49a7
1042
0000
0000
ENDCHAR
STARTCHAR ch-35
ENCODING 35
SWIDTH 1000 0
DWIDTH 16 0
BBX 16 16 0 -2
BITMAP
0020
1fff
1200
57fc
3c44
17fc
3444
57fc
1120
1124
112a
223f
4421
083f
0000
0000
ENDCHAR
STARTCHAR ch-36
ENCODING 36
SWIDTH 1000 0
DWIDTH 16 0
BBX 16 16 0 -2
BITMAP
0040
0fff
0840
4bbe
2a12
1a92
0ad2
1b26
2840
4bfe
0a22
13fe
2222
03fe
0000
0000
ENDCHAR
STARTCHAR ch-37
ENCODING 37
SWIDTH 1000 0
DWIDTH 16 0
BBX 16 16 0 -2
BITMAP
0040
0020
0fff
0908
4ffe
2840
1bfc
0840
1fff
6900
0bfe
0a20
1420
2bff
0000
0000
ENDCHAR
STARTCHAR ch-38
ENCODING 38
SWIDTH 1000 0
DWIDTH 16 0
BBX 16 16 0 -2
BITMAP
0040
1ffe
1040
525c
3444
175c
3444
57fc
1040
13f8
1110
20e0
4110
0e0e
0000
0000
ENDCHAR
STARTCHAR ch-39
ENCODING 39
SWIDTH 1000 0
DWIDTH 16 0
BBX 16 16 0 -2
BITMAP
0040
1fff
1040
107c
5040
37fe
1422
35fc
543c
14fc
2480
47ff
0880
00fc
0000
0000
ENDCHAR
STARTCHAR ch-40
ENCODING 40
SWIDTH 1000 0
DWIDTH 16 0
BBX 16 16 0 -2
BITMAP
0040
1fff
1020
57ff
3020
11fc
3104
51f4
11f4
11f4
1104
27ff
4202
0401
0000
0000
ENDCHAR
STARTCHAR ch-41
ENCODING 41
SWIDTH 1000 0
DWIDTH 16 0
BBX 16 16 0 -2
BITMAP
0080
0fff
4910
2910
2ffe
0950
18a0
2910
6ae8
0c07
0bfa
1208
23f8
0208
0000
0000
ENDCHAR
STARTCHAR ch-45
ENCODING 45
SWIDTH 1000 0
DWIDTH 16 0
BBX 16 16 0 -2
BITMAP
0040
1fff
1ffe
50a0
37fc
14a4
17fc
3000
57fc
1fff
2248
2446
4942
0080
0000
0000
ENDCHAR
STARTCHAR ch-47
ENCODING 47
SWIDTH 1000 0
DWIDTH 16 0
BBX 16 16 0 -2
BITMAP
0040
1fff
1220
5220
3fbf
1440
1420
37be
54a8
1488
14ff
2894
4122
02c1
0000
0000
ENDCHAR
STARTCHAR ch-48
ENCODING 48
SWIDTH 1000 0
DWIDTH 16 0
BBX 16 16 0 -2
BITMAP
0040
1fff
17fc
5444
37fc
1444
17fc
3088
57f0
1044
17fe
2444
4842
0040
0000
0000
ENDCHAR
STARTCHAR ch-49
ENCODING 49
SWIDTH 1000 0
DWIDTH 16 0
BBX 16 16 0 -2
BITMAP
0020
1fff
1020
57ff
3124
12aa
3451
518c
1603
1000
1144
1522
2504
01fc
0000
0000
ENDCHAR
STARTCHAR ch-50
ENCODING 50
SWIDTH 1000 0
DWIDTH 16 0
BBX 16 16 0 -2
BITMAP
0020
1ffe
1244
5244
3444
18aa
3310
5610
1a5e
1250
1250
1250
22b0
431f
0000
0000
ENDCHAR
STARTCHAR ch-51
ENCODING 51
SWIDTH 1000 0
DWIDTH 16 0
BBX 16 16 0 -2
BITMAP
0040
1ffe
57bc
34a4
1294
12d4
34a4
5338
1447
1b92
1020
23c8
2010
07e0
0000
0000
ENDCHAR
STARTCHAR ch-52
ENCODING 52
SWIDTH 1000 0
DWIDTH 16 0
BBX 16 16 0 -2
BITMAP
0040
0fff
0820
4bfe
2888
2fff
09fc
1904
29fc
4904
09fc
17ff
2020
0020
0000
0000
ENDCHAR
STARTCHAR ch-53
ENCODING 53
SWIDTH 1000 0
DWIDTH 16 0
BBX 16 16 0 -2
BITMAP
0040
1fff
1220
13bc
54a4
3a98
130c
35f3
5800
17fc
2248
2446
4842
0040
0000
0000
ENDCHAR
STARTCHAR ch-56
ENCODING 56
SWIDTH 1000 0
DWIDTH 16 0
BBX 16 16 0 -2
BITMAP
0040
0fff
0900
4fde
2952
2952
0ade
1c20
2bfe
6a22
0a52
1222
2252
0206
0000
0000
ENDCHAR
STARTCHAR ch-58
ENCODING 58
SWIDTH 1000 0
DWIDTH 16 0
BBX 16 16 0 -2
BITMAP
0040
1fff
17fe
5402
37fe
1400
35ff
5410
15ff
1555
1539
2555
4993
0102
0000
0000
ENDCHAR
STARTCHAR ch-60
ENCODING 60
SWIDTH 1000 0
DWIDTH 16 0
BBX 16 16 0 -2
BITMAP
0040
1fff
1110
5ffe
3110
17fc
1404
37fc
5404
17fc
1040
2fff
4110
0e0e
0000
0000
ENDCHAR
STARTCHAR ch-61
ENCODING 61
SWIDTH 1000 0
DWIDTH 16 0
BBX 16 16 0 -2
BITMAP
0040
1fff
1088
17ff
5088
30f8
1020
13fe
3222
53fe
13fe
2020
43fe
07ff
0000
0000
ENDCHAR
STARTCHAR ch-66
ENCODING 66
SWIDTH 1000 0
DWIDTH 16 0
BBX 16 16 0 -2
BITMAP
0040
1fff
1020
57ff
3252
118c
1104
33fe
5505
11fc
1104
21fc
4222
0461
0000
0000
ENDCHAR
STARTCHAR ch-67
ENCODING 67
SWIDTH 1000 0
DWIDTH 16 0
BBX 16 16 0 -2
BITMAP
0040
1fff
1040
177e
55a4
5618
36e7
157e
3528
577e
1588
243e
4408
047f
0000
0000
ENDCHAR
STARTCHAR ch-70
ENCODING 70
SWIDTH 1000 0
DWIDTH 16 0
BBX 16 16 0 -2
BITMAP
0040
1fff
128a
51dc
3088
1154
17ff
3441
5441
13fc
2044
4084
0104
0218
0000
0000
ENDCHAR
STARTCHAR ch-71
ENCODING 71
SWIDTH 1000 0
DWIDTH 16 0
BBX 16 16 0 -2
BITMAP
0020
1fff
179e
1492
579e
5492
379e
1402
34f2
5492
14f2
14f2
2496
4532
0000
0000
ENDCHAR
STARTCHAR ch-72
ENCODING 72
SWIDTH 1000 0
DWIDTH 16 0
BBX 16 16 0 -2
BITMAP
0040
1fff
17df
1088
5505
3202
17de
1052
37d2
5423
17de
2052
408c
0713
0000
0000
ENDCHAR
STARTCHAR ch-73
ENCODING 73
SWIDTH 1000 0
DWIDTH 16 0
BBX 16 16 0 -2
BITMAP
0040
1fff
1000
17df
5451
37df
13fe
1222
33fe
5222
13fe
2020
47ff
0020
0000
0000
ENDCHAR
STARTCHAR ch-76
ENCODING 76
SWIDTH 1000 0
DWIDTH 16 0
BBX 16 16 0 -2
BITMAP
0020
1fff
11fc
5104
31fc
1000
37df
5451
17df
1020
1222
2222
43fe
0202
0000
0000
ENDCHAR
STARTCHAR ch-80
ENCODING 80
SWIDTH 1000 0
DWIDTH 16 0
BBX 16 16 0 -2
BITMAP
0040
1fff
1070
5088
3174
1202
17ff
32aa
53fe
11fc
1104
21fc
4104
01fc
0000
0000
ENDCHAR
STARTCHAR ch-82
ENCODING 82
SWIDTH 1000 0
DWIDTH 16 0
BBX 16 16 0 -2
BITMAP
0040
1fff
1070
1088
5174
3202
15e3
112a
31ea
51ea
1266
2522
4905
01fc
0000
0000
ENDCHAR
STARTCHAR ch-83
ENCODING 83
SWIDTH 1000 0
DWIDTH 16 0
BBX 16 16 0 -2
BITMAP
0040
1fff
12ac
54ac
30fc
1107
12fa
3602
52a2
12a2
12aa
22b4
432a
0211
0000
0000
ENDCHAR
STARTCHAR ch-86
ENCODING 86
SWIDTH 1000 0
DWIDTH 16 0
BBX 16 16 0 -2
BITMAP
0080
1fff
1010
5788
34ff
14a2
1794
347f
5788
1c88
14be
2788
4488
0008
0000
0000
ENDCHAR
STARTCHAR ch-87
ENCODING 87
SWIDTH 1000 0
DWIDTH 16 0
BBX 16 16 0 -2
BITMAP
0040
1fff
1000
57ff
3020
17ff
1529
3529
5084
13fe
1222
23fe
4222
03fe
0000
0000
ENDCHAR
STARTCHAR ch-88
ENCODING 88
SWIDTH 1000 0
DWIDTH 16 0
BBX 16 16 0 -2
BITMAP
0040
1fff
1088
17ff
5088
33fe
1222
13fe
3222
53fe
17ff
2429
45f9
040f
0000
0000
ENDCHAR
STARTCHAR ch-89
ENCODING 89
SWIDTH 1000 0
DWIDTH 16 0
BBX 16 16 0 -2
BITMAP
0040
1fff
1100
561c
3404
171c
1404
37fc
5448
1778
1448
2778
4445
0762
0000
0000
ENDCHAR
STARTCHAR ch-90
ENCODING 90
SWIDTH 1000 0
DWIDTH 16 0
BBX 16 16 0 -2
BITMAP
0040
1fff
1100
51f8
3210
17fe
14a8
37fe
5400
15fc
15fc
27fe
4a02
03fe
0000
0000
ENDCHAR
STARTCHAR ch-92
ENCODING 92
SWIDTH 1000 0
DWIDTH 16 0
BBX 16 16 0 -2
BITMAP
0040
1fff
1000
17ee
542a
37ea
140a
1553
37e0
555e
17ea
2804
294a
5231
0000
0000
ENDCHAR
STARTCHAR ch-95
ENCODING 95
SWIDTH 1000 0
DWIDTH 16 0
BBX 16 16 0 -2
BITMAP
0040
1fff
1100
53f8
3208
13f8
13f8
3208
53f8
12e8
17fc
2ca6
47fc
04a4
0000
0000
ENDCHAR
STARTCHAR ch-96
ENCODING 96
SWIDTH 1000 0
DWIDTH 16 0
BBX 16 16 0 -2
BITMAP
0040
1fff
1020
57ff
3051
13ae
12aa
352d
5202
13fe
1202
23fe
4202
0402
0000
0000
ENDCHAR
STARTCHAR ch-97
ENCODING 97
SWIDTH 1000 0
DWIDTH 16 0
BBX 16 16 0 -2
BITMAP
0040
1fff
143e
5782
3414
148c
17bf
3405
5784
1917
27d4
4294
046c
0847
0000
0000
ENDCHAR
STARTCHAR ch-98
ENCODING 98
SWIDTH 1000 0
DWIDTH 16 0
BBX 16 16 0 -2
BITMAP
0040
1fff
1104
17ff
5020
33fe
17ff
3124
52fa
14a9
20f8
40a8
0090
00cc
0000
0000
ENDCHAR
STARTCHAR ch-100
ENCODING 100
SWIDTH 1000 0
DWIDTH 16 0
BBX 16 16 0 -2
BITMAP
0040
1fff
1204
53cf
3512
17c0
145f
37c9
5449
17c9
250a
4588
0648
0408
0000
0000
ENDCHAR
STARTCHAR ch-101
ENCODING 101
SWIDTH 1000 0
DWIDTH 16 0
BBX 16 16 0 -2
BITMAP
0040
1fff
1354
5554
39f7
120a
14e2
3c0a
55ea
144a
15ea
2444
45ea
0411
0000
0000
ENDCHAR
STARTCHAR ch-105
ENCODING 105
SWIDTH 1000 0
DWIDTH 16 0
BBX 16 16 0 -2
BITMAP
0040
1fff
1108
510f
37d2
111f
17d1
355f
57d1
111f
2391
455f
010a
0111
0000
0000
ENDCHAR
STARTCHAR ch-106
ENCODING 106
SWIDTH 1000 0
DWIDTH 16 0
BBX 16 16 0 -2
BITMAP
0040
1fff
1088
173e
5208
323e
1fff
3200
523e
1722
1aba
123a
223e
4241
0000
0000
ENDCHAR
STARTCHAR ch-108
ENCODING 108
SWIDTH 1000 0
DWIDTH 16 0
BBX 16 16 0 -2
BITMAP
0080
0040
1fff
1211
57ca
309f
17c4
3544
57df
1544
17c4
101f
1284
2544
0000
0000
ENDCHAR
STARTCHAR ch-109
ENCODING 109
SWIDTH 1000 0
DWIDTH 16 0
BBX 16 16 0 -2
BITMAP
0040
1fff
1000
13de
53de
33de
1252
33de
54a1
1088
17ff
1050
2020
41dc
0000
0000
ENDCHAR
STARTCHAR ch-110
ENCODING 110
SWIDTH 1000 0
DWIDTH 16 0
BBX 16 16 0 -2
BITMAP
0040
1fff
177c
552a
361c
153e
1488
34ff
54be
149e
253e
44aa
04a5
043c
0000
0000
ENDCHAR
STARTCHAR ch-112
ENCODING 112
SWIDTH 1000 0
DWIDTH 16 0
BBX 16 16 0 -2
BITMAP
0040
1fff
12a8
554a
32af
13ea
122a
33ef
500a
17fa
149f
17fa
241a
07ff
0000
0000
ENDCHAR
STARTCHAR ch-113
ENCODING 113
SWIDTH 1000 0
DWIDTH 16 0
BBX 16 16 0 -2
BITMAP
0080
1fff
1240
57e4
324a
13df
17ea
34aa
57ef
108a
17ea
208f
47ea
022f
0000
0000
ENDCHAR
STARTCHAR ch-114
ENCODING 114
SWIDTH 1000 0
DWIDTH 16 0
BBX 16 16 0 -2
BITMAP
0040
1fff
1100
1fdf
5104
37df
17d1
345f
57d1
145f
17d1
245f
4fea
0831
0000
0000
ENDCHAR
STARTCHAR ch-117
ENCODING 117
SWIDTH 1000 0
DWIDTH 16 0
BBX 16 16 0 -2
BITMAP
0080
1fff
1222
1575
5e7e
3474
1979
3f5f
5575
1020
13fe
2252
02aa
0256
0000
0000
ENDCHAR
STARTCHAR ch-120
ENCODING 120
SWIDTH 1000 0
DWIDTH 16 0
BBX 16 16 0 -2
BITMAP
1f48
0150
1224
0c28
0810
37ff
4082
0080
1ffc
0080
0160
0218
0c0c
3004
0000
0000
ENDCHAR
STARTCHAR ch-121
ENCODING 121
SWIDTH 1000 0
DWIDTH 16 0
BBX 16 16 0 -2
BITMAP
7f44
2228
1411
080a
13e4
6223
0c38
0000
07f0
0220
0140
0080
0140
3e3e
0000
0000
ENDCHAR
STARTCHAR ch-123
ENCODING 123
SWIDTH 1000 0
DWIDTH 16 0
BBX 16 16 0 -2
BITMAP
1f48
0150
0a24
0628
0410
0ff8
1007
67f2
0410
07f0
0410
0220
0144
3ffe
0000
0000
ENDCHAR
STARTCHAR ch-124
ENCODING 124
SWIDTH 1000 0
DWIDTH 16 0
BBX 16 16 0 -2
BITMAP
3e7e
0220
7417
0808
177c
214a
4149
1f4e
1000
1f7c
0144
0128
1110
0e6c
0000
0000
ENDCHAR
STARTCHAR ch-125
ENCODING 125
SWIDTH 1000 0
DWIDTH 16 0
BBX 16 16 0 -2
BITMAP
0100
0200
0404
1ffe
1004
1004
1004
1ffc
1004
1004
1004
1004
1ffc
1004
0000
0000
ENDCHAR
STARTCHAR ch-126
ENCODING 126
SWIDTH 1000 0
DWIDTH 16 0
BBX 16 16 0 -2
BITMAP
0002
7fff
0080
0100
0204
1ffe
1004
1004
1ffc
1004
1004
1004
1ffc
1004
0000
0000
ENDCHAR
STARTCHAR ch-127
ENCODING 127
SWIDTH 1000 0
DWIDTH 16 0
BBX 16 16 0 -2
BITMAP
0800
1020
2120
7fa0
2120
2120
2120
3f20
2120
2120
2121
2121
3f21
211f
0000
0000
ENDCHAR
STARTCHAR ch-129
ENCODING 129
SWIDTH 1000 0
DWIDTH 16 0
BBX 16 16 0 -2
BITMAP
0400
0804
1ffe
3004
5ffc
1004
1ffc
1084
0080
0080
7fff
0080
0080
0080
0000
0000
ENDCHAR
STARTCHAR ch-130
ENCODING 130
SWIDTH 1000 0
DWIDTH 16 0
BBX 16 16 0 -2
BITMAP
0100
0ff8
0808
0808
0ff8
0808
0808
0ff8
0200
0202
7fff
0200
0200
01fe
0000
0000
ENDCHAR
STARTCHAR ch-132
ENCODING 132
SWIDTH 1000 0
DWIDTH 16 0
BBX 16 16 0 -2
BITMAP
1040
2042
7e7f
4282
4302
4202
4222
7e12
4212
4202
4202
7e02
4214
0008
0000
0000
ENDCHAR
STARTCHAR ch-134
ENCODING 134
SWIDTH 1000 0
DWIDTH 16 0
BBX 16 16 0 -2
BITMAP
2040
2244
3f4c
2070
2341
7c3f
0100
0ff8
0808
0ff8
0808
0808
0ff8
0808
0000
0000
ENDCHAR
STARTCHAR ch-135
ENCODING 135
SWIDTH 1000 0
DWIDTH 16 0
BBX 16 16 0 -2
BITMAP
0200
0ff8
0808
0ff8
0808
0ff8
0000
3ffe
0080
0088
1ffc
0080
0082
7fff
0000
0000
ENDCHAR
STARTCHAR ch-136
ENCODING 136
SWIDTH 1000 0
DWIDTH 16 0
BBX 16 16 0 -2
BITMAP
100e
20f0
7c80
4480
44fe
4482
7cc2
44c4
44a4
44a8
7d10
4528
0247
0582
0000
0000
ENDCHAR
STARTCHAR ch-137
ENCODING 137
SWIDTH 1000 0
DWIDTH 16 0
BBX 16 16 0 -2
BITMAP
0048
1048
2048
7c48
457f
4548
4548
7d48
4548
4548
4549
7d49
4549
07df
0000
0000
ENDCHAR
STARTCHAR ch-138
ENCODING 138
SWIDTH 1000 0
DWIDTH 16 0
BBX 16 16 0 -2
BITMAP
1010
2028
4044
7c82
4539
4400
7c00
44fe
4402
4404
7c48
4430
0010
0008
0000
0000
ENDCHAR
STARTCHAR ch-139
ENCODING 139
SWIDTH 1000 0
DWIDTH 16 0
BBX 16 16 0 -2
BITMAP
0100
0ffc
0808
0ff8
0808
0ff8
0200
7fff
0410
0888
1087
6ffa
0080
0080
0000
0000
ENDCHAR
STARTCHAR ch-142
ENCODING 142
SWIDTH 1000 0
DWIDTH 16 0
BBX 16 16 0 -2
BITMAP
1040
1020
2012
7bff
4888
4906
4a8a
7888
4850
4820
4850
7888
4104
0603
0000
0000
ENDCHAR
STARTCHAR ch-143
ENCODING 143
SWIDTH 1000 0
DWIDTH 16 0
BBX 16 16 0 -2
BITMAP
1044
2044
4028
7cfe
4444
4444
7c44
45ff
4444
4444
7c44
4484
0104
0204
0000
0000
ENDCHAR
STARTCHAR ch-146
ENCODING 146
SWIDTH 1000 0
DWIDTH 16 0
BBX 16 16 0 -2
BITMAP
01e6
1045
2044
4044
7dff
4444
4464
7c44
44c5
4546
4444
7c4d
4553
0081
0000
0000
ENDCHAR
STARTCHAR ch-147
ENCODING 147
SWIDTH 1000 0
DWIDTH 16 0
BBX 16 16 0 -2
BITMAP
1010
1090
2090
7cfe
4510
4412
47ff
7c00
44fe
4482
4482
7c82
44fe
0082
0000
0000
ENDCHAR
STARTCHAR ch-149
ENCODING 149
SWIDTH 1000 0
DWIDTH 16 0
BBX 16 16 0 -2
BITMAP
0202
7f7f
1010
2020
7f7f
4141
4141
4141
7f7f
4141
4141
4141
7f7f
4141
0000
0000
ENDCHAR
STARTCHAR ch-150
ENCODING 150
SWIDTH 1000 0
DWIDTH 16 0
BBX 16 16 0 -2
BITMAP
1010
20ff
7c81
4502
447c
4400
7c02
45ff
4448
4448
7c89
4089
0109
0607
0000
0000
ENDCHAR
STARTCHAR ch-153
ENCODING 153
SWIDTH 1000 0
DWIDTH 16 0
BBX 16 16 0 -2
BITMAP
0478
3f40
0c7e
0e48
1548
2448
0488
0100
0ff8
0808
0ff8
0808
0ff8
0808
0000
0000
ENDCHAR
STARTCHAR ch-154
ENCODING 154
SWIDTH 1000 0
DWIDTH 16 0
BBX 16 16 0 -2
BITMAP
1010
2111
4111
7dff
4400
45ff
4400
7dff
4501
4501
45ff
7c82
4444
01ff
0000
0000
ENDCHAR
STARTCHAR ch-155
ENCODING 155
SWIDTH 1000 0
DWIDTH 16 0
BBX 16 16 0 -2
BITMAP
0200
0400
0ff8
1408
07f8
0408
07f8
0000
1010
3f3f
6161
3f3f
2121
3f3f
0000
0000
ENDCHAR
STARTCHAR ch-156
ENCODING 156
SWIDTH 1000 0
DWIDTH 16 0
BBX 16 16 0 -2
BITMAP
0020
27ff
4000
79fc
4904
49fc
4800
7bfe
4a02
4afa
4a8a
7afa
4a02
0206
0000
0000
ENDCHAR
STARTCHAR ch-157
ENCODING 157
SWIDTH 1000 0
DWIDTH 16 0
BBX 16 16 0 -2
BITMAP
1008
2049
4049
7f2a
4108
7f08
417f
7f24
0024
7f24
0824
7f24
0825
7f47
0000
0000
ENDCHAR
STARTCHAR ch-158
ENCODING 158
SWIDTH 1000 0
DWIDTH 16 0
BBX 16 16 0 -2
BITMAP
0100
13fe
2602
43fe
7a02
4bfe
4820
7820
4fff
4924
7a22
4dfd
0020
0020
0000
0000
ENDCHAR
STARTCHAR ch-164
ENCODING 164
SWIDTH 1000 0
DWIDTH 16 0
BBX 16 16 0 -2
BITMAP
13fe
2124
7ca8
27ff
2470
24a8
3f27
25fc
2524
2524
25fc
3d24
2524
01fc
0000
0000
ENDCHAR
STARTCHAR ch-166
ENCODING 166
SWIDTH 1000 0
DWIDTH 16 0
BBX 16 16 0 -2
BITMAP
1108
2208
47df
7a62
4bc2
4a42
4bd2
7912
4fd2
4a12
4bcc
7a4c
0472
0181
0000
0000
ENDCHAR
STARTCHAR ch-170
ENCODING 170
SWIDTH 1000 0
DWIDTH 16 0
BBX 16 16 0 -2
BITMAP
1020
2172
4152
7ad5
4bf7
4952
4a54
7af5
4ba7
4820
4fff
78a8
4924
0623
0000
0000
ENDCHAR
STARTCHAR ch-171
ENCODING 171
SWIDTH 1000 0
DWIDTH 16 0
BBX 16 16 0 -2
BITMAP
0010
13ff
2200
4248
7bff
4a49
4bff
4b08
7bce
4b28
4def
4800
7a49
0249
0000
0000
ENDCHAR
STARTCHAR ch-173
ENCODING 173
SWIDTH 1000 0
DWIDTH 16 0
BBX 16 16 0 -2
BITMAP
0002
08fc
1092
21ff
7d45
45ff
4400
45e2
7d22
45ff
4522
45ea
7dc2
0126
0000
0000
ENDCHAR
STARTCHAR ch-174
ENCODING 174
SWIDTH 1000 0
DWIDTH 16 0
BBX 16 16 0 -2
BITMAP
0040
0040
1ffe
1042
1044
17fc
1004
1208
1110
10a0
1040
20b0
230f
4c02
0000
0000
ENDCHAR
STARTCHAR ch-175
ENCODING 175
SWIDTH 1000 0
DWIDTH 16 0
BBX 16 16 0 -2
BITMAP
0400
0400
3fbe
2488
2508
2408
2f7f
2908
2908
2608
4608
0908
1088
2048
0000
0000
ENDCHAR
STARTCHAR ch-176
ENCODING 176
SWIDTH 1000 0
DWIDTH 16 0
BBX 16 16 0 -2
BITMAP
0420
0420
3f3f
2541
2581
2479
2449
3f49
2179
3142
4a40
0441
0a41
317f
0000
0000
ENDCHAR
STARTCHAR ch-180
ENCODING 180
SWIDTH 1000 0
DWIDTH 16 0
BBX 16 16 0 -2
BITMAP
1010
2410
42ff
7e91
1490
22fc
5084
1ec8
22a8
5490
0928
1628
2447
0182
0000
0000
ENDCHAR
STARTCHAR ch-181
ENCODING 181
SWIDTH 1000 0
DWIDTH 16 0
BBX 16 16 0 -2
BITMAP
1204
1204
3f3f
1225
1225
7fa4
003f
3f21
2121
2131
3f2a
2144
210a
3f11
0000
0000
ENDCHAR
STARTCHAR ch-184
ENCODING 184
SWIDTH 1000 0
DWIDTH 16 0
BBX 16 16 0 -2
BITMAP
7f08
4908
5d7f
0849
3e49
2a48
3e5e
2a52
3e52
0852
7f4c
088c
0812
0821
0000
0000
ENDCHAR
STARTCHAR ch-186
ENCODING 186
SWIDTH 1000 0
DWIDTH 16 0
BBX 16 16 0 -2
BITMAP
2008
3f08
497f
2b49
3f49
0940
205f
3f41
4951
2b52
3f4c
0952
11a1
2221
0000
0000
ENDCHAR
STARTCHAR ch-187
ENCODING 187
SWIDTH 1000 0
DWIDTH 16 0
BBX 16 16 0 -2
BITMAP
0404
0784
3fdf
2455
3f55
2414
2714
2f9f
2891
2f91
28aa
4f84
088a
3fd1
0000
0000
ENDCHAR
STARTCHAR ch-189
ENCODING 189
SWIDTH 1000 0
DWIDTH 16 0
BBX 16 16 0 -2
BITMAP
0404
7fc4
3f9f
2e95
2a94
2e94
3f94
1f1f
1111
1f11
112a
1f04
000a
7fd1
0000
0000
ENDCHAR
STARTCHAR ch-190
ENCODING 190
SWIDTH 1000 0
DWIDTH 16 0
BBX 16 16 0 -2
BITMAP
0404
7fc4
0404
3f9f
7fd5
4a54
7fd4
001f
3f91
2099
3e9a
3ea4
3f8a
60d1
0000
0000
ENDCHAR
STARTCHAR ch-191
ENCODING 191
SWIDTH 1000 0
DWIDTH 16 0
BBX 16 16 0 -2
BITMAP
0000
0004
1ffe
1224
1224
1224
1224
1224
1224
1224
1224
1224
7fff
0000
0000
0000
ENDCHAR
STARTCHAR ch-194
ENCODING 194
SWIDTH 1000 0
DWIDTH 16 0
BBX 16 16 0 -2
BITMAP
0008
1ffc
0080
0082
7fff
0080
0080
0280
0104
1ffe
1224
1224
1224
7fff
0000
0000
ENDCHAR
STARTCHAR ch-195
ENCODING 195
SWIDTH 1000 0
DWIDTH 16 0
BBX 16 16 0 -2
BITMAP
0004
3ffe
0080
0190
0688
3886
0080
0080
0180
1ffc
1224
1224
1224
7fff
0000
0000
ENDCHAR
STARTCHAR ch-196
ENCODING 196
SWIDTH 1000 0
DWIDTH 16 0
BBX 16 16 0 -2
BITMAP
1ffc
0084
3ffc
2080
3fff
0081
0081
0082
1ffc
1224
1224
1224
1224
7fff
0000
0000
ENDCHAR
STARTCHAR ch-197
ENCODING 197
SWIDTH 1000 0
DWIDTH 16 0
BBX 16 16 0 -2
BITMAP
0080
0084
1ffe
1084
1084
1ffc
1084
0080
0080
1ffc
1224
1224
1224
7fff
0000
0000
ENDCHAR
STARTCHAR ch-198
ENCODING 198
SWIDTH 1000 0
DWIDTH 16 0
BBX 16 16 0 -2
BITMAP
03c0
0420
0810
17e8
6227
0222
0420
18c0
0004
1ffe
1224
1224
1224
7fff
0000
0000
ENDCHAR
STARTCHAR ch-200
ENCODING 200
SWIDTH 1000 0
DWIDTH 16 0
BBX 16 16 0 -2
BITMAP
0008
3ffc
0808
0be8
0a3e
0942
1082
116a
2224
0000
1ffc
1224
1224
7fff
0000
0000
ENDCHAR
STARTCHAR ch-201
ENCODING 201
SWIDTH 1000 0
DWIDTH 16 0
BBX 16 16 0 -2
BITMAP
0002
1ffc
0080
0080
7fff
01c0
06b0
388e
0080
1ffc
1124
1124
1124
7fff
0000
0000
ENDCHAR
STARTCHAR ch-202
ENCODING 202
SWIDTH 1000 0
DWIDTH 16 0
BBX 16 16 0 -2
BITMAP
1008
0810
0420
0004
3ffe
0410
0808
3006
0000
1ffc
1224
1224
1224
7fff
0000
0000
ENDCHAR
STARTCHAR ch-205
ENCODING 205
SWIDTH 1000 0
DWIDTH 16 0
BBX 16 16 0 -2
BITMAP
0080
1ffc
0080
0080
7fff
0200
0404
3ffe
0001
1ffc
1224
1224
1224
7fff
0000
0000
ENDCHAR
STARTCHAR ch-206
ENCODING 206
SWIDTH 1000 0
DWIDTH 16 0
BBX 16 16 0 -2
BITMAP
0080
0080
1ffc
1084
1084
7fff
0410
180c
6003
1ffc
1224
1224
1224
7fff
0000
0000
ENDCHAR
STARTCHAR ch-210
ENCODING 210
SWIDTH 1000 0
DWIDTH 16 0
BBX 16 16 0 -2
BITMAP
03e0
0410
0808
17f4
2002
47f1
0410
07f0
0000
1ffc
1224
1224
1224
7fff
0000
0000
ENDCHAR
STARTCHAR ch-211
ENCODING 211
SWIDTH 1000 0
DWIDTH 16 0
BBX 16 16 0 -2
BITMAP
41fe
3010
1010
43ff
2010
0810
1050
2020
0000
1ffc
1224
1224
1224
7fff
0000
0000
ENDCHAR
STARTCHAR ch-212
ENCODING 212
SWIDTH 1000 0
DWIDTH 16 0
BBX 16 16 0 -2
BITMAP
0100
0102
7fff
0248
0550
04e0
0890
110e
2204
1ffc
1224
1224
1224
7fff
0000
0000
ENDCHAR
STARTCHAR ch-218
ENCODING 218
SWIDTH 1000 0
DWIDTH 16 0
BBX 16 16 0 -2
BITMAP
0084
0082
7fff
0082
3ebc
01c0
02a0
3c9e
0380
0000
1ffc
1224
1224
7fff
0000
0000
ENDCHAR
STARTCHAR ch-219
ENCODING 219
SWIDTH 1000 0
DWIDTH 16 0
BBX 16 16 0 -2
BITMAP
0048
1ffe
1040
1f44
1128
1128
2511
2269
4007
1ffc
1224
1224
1224
7fff
0000
0000
ENDCHAR
STARTCHAR ch-220
ENCODING 220
SWIDTH 1000 0
DWIDTH 16 0
BBX 16 16 0 -2
BITMAP
4100
3100
01ff
4221
3422
0050
1088
6104
2203
3ffc
1224
1224
1224
7fff
0000
0000
ENDCHAR
STARTCHAR ch-221
ENCODING 221
SWIDTH 1000 0
DWIDTH 16 0
BBX 16 16 0 -2
BITMAP
0080
01f0
0220
0540
0080
7fff
0490
02a0
0490
398e
1ffc
1224
1224
7fff
0000
0000
ENDCHAR
STARTCHAR ch-222
ENCODING 222
SWIDTH 1000 0
DWIDTH 16 0
BBX 16 16 0 -2
BITMAP
0204
3ffe
0140
0082
3f7e
0204
7fff
0140
0082
3f7e
1ffc
1224
1224
7fff
0000
0000
ENDCHAR
STARTCHAR ch-223
ENCODING 223
SWIDTH 1000 0
DWIDTH 16 0
BBX 16 16 0 -2
BITMAP
007e
3f42
2142
3f7e
2142
3f7e
2142
0046
0082
1ffc
1224
1224
1224
7fff
0000
0000
ENDCHAR
STARTCHAR ch-225
ENCODING 225
SWIDTH 1000 0
DWIDTH 16 0
BBX 16 16 0 -2
BITMAP
0080
1ffc
0084
7fff
0084
1ffc
0080
7fff
2222
4111
1ffc
1224
1224
7fff
0000
0000
ENDCHAR
STARTCHAR ch-227
ENCODING 227
SWIDTH 1000 0
DWIDTH 16 0
BBX 16 16 0 -2
BITMAP
0110
7f90
441f
7f90
40a0
7f80
441f
7f80
0000
1ffc
1224
1224
1224
7fff
0000
0000
ENDCHAR
STARTCHAR ch-228
ENCODING 228
SWIDTH 1000 0
DWIDTH 16 0
BBX 16 16 0 -2
BITMAP
0800
1078
3e48
224a
2a8c
2a7c
7f28
2a10
2a28
2244
1ff8
1248
1248
7ffe
0000
0000
ENDCHAR
STARTCHAR ch-229
ENCODING 229
SWIDTH 1000 0
DWIDTH 16 0
BBX 16 16 0 -2
BITMAP
0482
388f
2092
27a2
39ce
22c2
22a2
349e
2982
0000
1ffc
1224
1224
7fff
0000
0000
ENDCHAR
STARTCHAR ch-230
ENCODING 230
SWIDTH 1000 0
DWIDTH 16 0
BBX 16 16 0 -2
BITMAP
03c0
0420
0bd0
17e8
2024
1ff8
0220
1ffc
1224
1ebc
1ffc
3ffe
2222
7fff
0000
0000
ENDCHAR
STARTCHAR ch-231
ENCODING 231
SWIDTH 1000 0
DWIDTH 16 0
BBX 16 16 0 -2
BITMAP
0080
00fc
1fff
13fd
1081
10f8
13f8
1248
13f8
1248
13f8
17fc
24a4
5fff
0000
0000
ENDCHAR
STARTCHAR ch-233
ENCODING 233
SWIDTH 1000 0
DWIDTH 16 0
BBX 16 16 0 -2
BITMAP
0820
3e20
087f
7f04
2224
1424
7f24
0818
3e18
0826
1ff8
1248
1248
7ffe
0000
0000
ENDCHAR
STARTCHAR ch-234
ENCODING 234
SWIDTH 1000 0
DWIDTH 16 0
BBX 16 16 0 -2
BITMAP
21fe
19fe
4102
31fe
03ff
0880
11ff
6249
2091
1ffc
1224
1224
1224
7fff
0000
0000
ENDCHAR
STARTCHAR ch-236
ENCODING 236
SWIDTH 1000 0
DWIDTH 16 0
BBX 16 16 0 -2
BITMAP
7e40
487f
4848
7ebe
4208
7e3e
4822
4822
7e3e
0000
1ffc
1224
1224
7fff
0000
0000
ENDCHAR
STARTCHAR ch-237
ENCODING 237
SWIDTH 1000 0
DWIDTH 16 0
BBX 16 16 0 -2
BITMAP
2440
7840
117f
3f40
0882
3e22
7f14
1408
3e14
7f22
0841
1ffc
1224
7fff
0000
0000
ENDCHAR
STARTCHAR ch-238
ENCODING 238
SWIDTH 1000 0
DWIDTH 16 0
BBX 16 16 0 -2
BITMAP
0008
1ffc
1008
1008
1008
1ff8
1008
1008
1ff8
1008
1008
1008
1ff8
1008
0000
0000
ENDCHAR
STARTCHAR ch-239
ENCODING 239
SWIDTH 1000 0
DWIDTH 16 0
BBX 16 16 0 -2
BITMAP
0000
7c02
47ff
4410
7c10
4410
4410
7c10
4410
4410
4410
7c10
4450
0020
0000
0000
ENDCHAR
STARTCHAR ch-240
ENCODING 240
SWIDTH 1000 0
DWIDTH 16 0
BBX 16 16 0 -2
BITMAP
00fe
7c10
4410
4410
7c12
45ff
4410
7c10
4410
4410
7c10
4410
0010
0010
0000
0000
ENDCHAR
STARTCHAR ch-241
ENCODING 241
SWIDTH 1000 0
DWIDTH 16 0
BBX 16 16 0 -2
BITMAP
04fe
7e10
4410
4410
7c10
4412
45ff
7c10
4410
4410
7c10
4410
0050
0020
0000
0000
ENDCHAR
STARTCHAR ch-242
ENCODING 242
SWIDTH 1000 0
DWIDTH 16 0
BBX 16 16 0 -2
BITMAP
0100
7fff
0800
0808
0ffc
0000
0ff8
0808
0ff8
0808
0ff8
0808
0ff8
0808
0000
0000
ENDCHAR
STARTCHAR ch-243
ENCODING 243
SWIDTH 1000 0
DWIDTH 16 0
BBX 16 16 0 -2
BITMAP
0010
0010
7c10
45ff
4440
7c40
4440
4440
7c40
4440
4440
7c40
447f
0000
0000
0000
ENDCHAR
STARTCHAR ch-244
ENCODING 244
SWIDTH 1000 0
DWIDTH 16 0
BBX 16 16 0 -2
BITMAP
0080
0084
3ffe
0080
0100
0ff8
0808
0ff8
0808
0ff8
0808
0ff8
0808
7fff
0000
0000
ENDCHAR
STARTCHAR ch-245
ENCODING 245
SWIDTH 1000 0
DWIDTH 16 0
BBX 16 16 0 -2
BITMAP
0040
7c80
457f
4400
7c00
447c
4404
7c08
4410
4420
4440
7c81
4501
00ff
0000
0000
ENDCHAR
STARTCHAR ch-247
ENCODING 247
SWIDTH 1000 0
DWIDTH 16 0
BBX 16 16 0 -2
BITMAP
0100
7900
49ff
4a01
7801
48f1
4801
7801
49f9
4801
4801
7801
4802
001c
0000
0000
ENDCHAR
STARTCHAR ch-248
ENCODING 248
SWIDTH 1000 0
DWIDTH 16 0
BBX 16 16 0 -2
BITMAP
0802
08ff
0882
7e82
08fe
1882
1c82
2a82
28fe
4882
0882
0882
08fe
0882
0000
0000
ENDCHAR
STARTCHAR ch-249
ENCODING 249
SWIDTH 1000 0
DWIDTH 16 0
BBX 16 16 0 -2
BITMAP
0020
7c22
47ff
4420
7c20
4524
4524
7d24
4524
45fc
4424
7c21
4421
001f
0000
0000
ENDCHAR
STARTCHAR ch-250
ENCODING 250
SWIDTH 1000 0
DWIDTH 16 0
BBX 16 16 0 -2
BITMAP
0001
7cfe
4440
4440
7c7f
4444
4444
7c44
4444
4484
7d04
4404
0004
0004
0000
0000
ENDCHAR
STARTCHAR ch-251
ENCODING 251
SWIDTH 1000 0
DWIDTH 16 0
BBX 16 16 0 -2
BITMAP
0050
0088
7904
4a02
4c01
79fc
4820
4840
78fe
4802
4802
4804
7808
4870
0000
0000
ENDCHAR
STARTCHAR ch-252
ENCODING 252
SWIDTH 1000 0
DWIDTH 16 0
BBX 16 16 0 -2
BITMAP
0010
7c50
4450
4488
7d04
4507
46fa
7c48
4448
4448
4488
7c88
4128
0210
0000
0000
ENDCHAR
STARTCHAR ch-254
ENCODING 254
SWIDTH 1000 0
DWIDTH 16 0
BBX 16 16 0 -2
BITMAP
003c
1fc0
1042
1fff
1040
17fc
1404
17fc
1404
1404
27fc
2404
4404
07fc
0000
0000
ENDCHAR
STARTCHAR ch-257
ENCODING 257
SWIDTH 1000 0
DWIDTH 16 0
BBX 16 16 0 -2
BITMAP
0080
0488
0886
10b2
01c0
0604
1ffe
6404
07fc
0404
07fc
0404
07fc
0404
0000
0000
ENDCHAR
STARTCHAR ch-259
ENCODING 259
SWIDTH 1000 0
DWIDTH 16 0
BBX 16 16 0 -2
BITMAP
0004
79fe
4800
4800
7802
4bff
4810
7810
4820
4840
4884
7902
4bff
0001
0000
0000
ENDCHAR
STARTCHAR ch-260
ENCODING 260
SWIDTH 1000 0
DWIDTH 16 0
BBX 16 16 0 -2
BITMAP
01ff
7c10
4490
4492
7c9f
4492
4492
7cfe
4402
4402
7c02
4422
0014
0008
0000
0000
ENDCHAR
STARTCHAR ch-261
ENCODING 261
SWIDTH 1000 0
DWIDTH 16 0
BBX 16 16 0 -2
BITMAP
0001
79fe
4900
4900
797e
4942
4942
7924
4918
4918
4a24
7c42
4881
0101
0000
0000
ENDCHAR
STARTCHAR ch-263
ENCODING 263
SWIDTH 1000 0
DWIDTH 16 0
BBX 16 16 0 -2
BITMAP
0420
7e20
4420
44a8
7ca4
4523
4521
7e24
4424
4404
7c08
4430
00c0
0700
0000
0000
ENDCHAR
STARTCHAR ch-264
ENCODING 264
SWIDTH 1000 0
DWIDTH 16 0
BBX 16 16 0 -2
BITMAP
0420
7e20
4422
45ff
7d22
4624
4420
7c30
4450
4450
7c91
4491
0111
060f
0000
0000
ENDCHAR
STARTCHAR ch-265
ENCODING 265
SWIDTH 1000 0
DWIDTH 16 0
BBX 16 16 0 -2
BITMAP
1ffe
1084
1084
1ffc
1000
17fc
1404
17fc
1404
17fc
1404
2404
47fc
0404
0000
0000
ENDCHAR
STARTCHAR ch-266
ENCODING 266
SWIDTH 1000 0
DWIDTH 16 0
BBX 16 16 0 -2
BITMAP
0004
79f8
4820
4820
7bfe
4820
4820
7fff
4820
4820
4820
7821
4821
003f
0000
0000
ENDCHAR
STARTCHAR ch-267
ENCODING 267
SWIDTH 1000 0
DWIDTH 16 0
BBX 16 16 0 -2
BITMAP
3ff8
0100
3ffc
0200
7fff
0800
1ff8
2808
4ff8
0808
0ff8
0808
0ff8
0808
0000
0000
ENDCHAR
STARTCHAR ch-272
ENCODING 272
SWIDTH 1000 0
DWIDTH 16 0
BBX 16 16 0 -2
BITMAP
0002
01ff
7c10
4410
4410
7c10
449f
4490
7c90
4490
4490
7c90
4490
03ff
0000
0000
ENDCHAR
STARTCHAR ch-273
ENCODING 273
SWIDTH 1000 0
DWIDTH 16 0
BBX 16 16 0 -2
BITMAP
0008
0048
789f
4909
4a29
7fc9
4889
4909
7a49
4fc9
4849
7811
4802
000c
0000
0000
ENDCHAR
STARTCHAR ch-274
ENCODING 274
SWIDTH 1000 0
DWIDTH 16 0
BBX 16 16 0 -2
BITMAP
0010
7c10
45ff
4511
7d11
45ff
4511
7d11
45ff
4511
7c10
4410
0010
0010
0000
0000
ENDCHAR
STARTCHAR ch-275
ENCODING 275
SWIDTH 1000 0
DWIDTH 16 0
BBX 16 16 0 -2
BITMAP
0010
0014
7c12
4410
45ff
7d10
4510
4511
7d12
4514
4509
7d55
45a3
0101
0000
0000
ENDCHAR
STARTCHAR ch-277
ENCODING 277
SWIDTH 1000 0
DWIDTH 16 0
BBX 16 16 0 -2
BITMAP
0020
0050
7888
4904
4a12
7c21
4840
4990
7820
4844
4988
7810
4820
01c0
0000
0000
ENDCHAR
STARTCHAR ch-281
ENCODING 281
SWIDTH 1000 0
DWIDTH 16 0
BBX 16 16 0 -2
BITMAP
0410
7e20
4420
4444
7c82
45ff
4401
7c00
44fe
4482
7c82
4482
00fe
0082
0000
0000
ENDCHAR
STARTCHAR ch-282
ENCODING 282
SWIDTH 1000 0
DWIDTH 16 0
BBX 16 16 0 -2
BITMAP
0880
0ffc
1080
27f0
0082
7fff
0ff8
0808
0ff8
0808
0ff8
0808
0ff8
0808
0000
0000
ENDCHAR
STARTCHAR ch-283
ENCODING 283
SWIDTH 1000 0
DWIDTH 16 0
BBX 16 16 0 -2
BITMAP
0010
7c10
44fe
4410
7c10
45ff
4410
7c38
4454
4492
7d11
4410
0010
0010
0000
0000
ENDCHAR
STARTCHAR ch-285
ENCODING 285
SWIDTH 1000 0
DWIDTH 16 0
BBX 16 16 0 -2
BITMAP
0020
0010
7dff
4501
4501
7c00
45ff
4410
7c10
4410
4410
7c10
4450
0020
0000
0000
ENDCHAR
STARTCHAR ch-287
ENCODING 287
SWIDTH 1000 0
DWIDTH 16 0
BBX 16 16 0 -2
BITMAP
0084
3ffe
0080
0ff8
0808
0ff8
0808
0ff8
0808
0ff8
0808
7fff
0410
080c
0000
0000
ENDCHAR
STARTCHAR ch-288
ENCODING 288
SWIDTH 1000 0
DWIDTH 16 0
BBX 16 16 0 -2
BITMAP
0004
7dfe
4504
4504
7dfc
4520
4522
7dff
4520
4510
4508
7d49
4585
0103
0000
0000
ENDCHAR
STARTCHAR ch-290
ENCODING 290
SWIDTH 1000 0
DWIDTH 16 0
BBX 16 16 0 -2
BITMAP
0804
0f7e
1944
2554
0249
0441
183f
6ff8
0808
0ff8
0808
0ff8
0808
0ff8
0000
0000
ENDCHAR
STARTCHAR ch-291
ENCODING 291
SWIDTH 1000 0
DWIDTH 16 0
BBX 16 16 0 -2
BITMAP
0010
0090
7cfe
4510
4410
7c10
45ff
4410
7c10
4410
4428
4444
7c82
4501
0000
0000
ENDCHAR
STARTCHAR ch-293
ENCODING 293
SWIDTH 1000 0
DWIDTH 16 0
BBX 16 16 0 -2
BITMAP
0420
27be
2420
2421
7fbf
0000
1ffc
1004
1ffc
1004
1ffc
1004
1ffc
1004
0000
0000
ENDCHAR
STARTCHAR ch-295
ENCODING 295
SWIDTH 1000 0
DWIDTH 16 0
BBX 16 16 0 -2
BITMAP
01ff
7c21
4421
4421
7c41
448e
4400
7dff
4501
4501
7d01
4501
01ff
0101
0000
0000
ENDCHAR
STARTCHAR ch-296
ENCODING 296
SWIDTH 1000 0
DWIDTH 16 0
BBX 16 16 0 -2
BITMAP
0406
7e38
45c0
4420
4420
7c28
45fc
4410
7c20
4440
4480
4700
7e80
447f
0000
0000
ENDCHAR
STARTCHAR ch-297
ENCODING 297
SWIDTH 1000 0
DWIDTH 16 0
BBX 16 16 0 -2
BITMAP
0020
7812
4bff
4808
4810
7820
4842
4884
79f8
4810
4820
4842
7bff
4801
0000
0000
ENDCHAR
STARTCHAR ch-301
ENCODING 301
SWIDTH 1000 0
DWIDTH 16 0
BBX 16 16 0 -2
BITMAP
0010
0010
7efe
4410
4410
7c12
45ff
4410
7c10
44fe
4410
7c10
4412
01ff
0000
0000
ENDCHAR
STARTCHAR ch-303
ENCODING 303
SWIDTH 1000 0
DWIDTH 16 0
BBX 16 16 0 -2
BITMAP
0020
7d22
48a6
48a8
7822
4bff
4820
7870
4870
48ac
4927
7a22
4820
0020
0000
0000
ENDCHAR
STARTCHAR ch-305
ENCODING 305
SWIDTH 1000 0
DWIDTH 16 0
BBX 16 16 0 -2
BITMAP
0020
7bfe
4820
4bfe
7822
4bfe
4a20
7bff
4821
4825
4852
7888
4904
0603
0000
0000
ENDCHAR
STARTCHAR ch-306
ENCODING 306
SWIDTH 1000 0
DWIDTH 16 0
BBX 16 16 0 -2
BITMAP
0004
7bfe
4884
4884
78fc
4884
4884
78fc
4884
4884
7bff
4804
0004
0004
0000
0000
ENDCHAR
STARTCHAR ch-307
ENCODING 307
SWIDTH 1000 0
DWIDTH 16 0
BBX 16 16 0 -2
BITMAP
0040
787f
4882
4984
7a48
4830
4820
7840
48ff
4981
7a81
4881
00ff
0081
0000
0000
ENDCHAR
STARTCHAR ch-308
ENCODING 308
SWIDTH 1000 0
DWIDTH 16 0
BBX 16 16 0 -2
BITMAP
0080
78ff
4901
4af9
7889
4889
48f9
7889
4889
48f9
7889
4801
0012
000c
0000
0000
ENDCHAR
STARTCHAR ch-309
ENCODING 309
SWIDTH 1000 0
DWIDTH 16 0
BBX 16 16 0 -2
BITMAP
0020
7c7e
4484
4548
7c30
4420
4452
7d9f
4442
44a4
7c14
4408
0030
01c0
0000
0000
ENDCHAR
STARTCHAR ch-310
ENCODING 310
SWIDTH 1000 0
DWIDTH 16 0
BBX 16 16 0 -2
BITMAP
0002
03ff
7a00
4a7c
4a10
7a10
4a10
4a7c
7a10
4a10
4a10
7afe
4a00
03ff
0000
0000
ENDCHAR
STARTCHAR ch-311
ENCODING 311
SWIDTH 1000 0
DWIDTH 16 0
BBX 16 16 0 -2
BITMAP
0888
1084
3ffe
4121
7fff
0410
0ff8
1417
67f2
0410
07f0
0410
07f0
0410
0000
0000
ENDCHAR
STARTCHAR ch-312
ENCODING 312
SWIDTH 1000 0
DWIDTH 16 0
BBX 16 16 0 -2
BITMAP
0020
7848
4884
49fe
7812
4890
48fe
7910
4810
4bff
4810
7810
4810
0010
0000
0000
ENDCHAR
STARTCHAR ch-313
ENCODING 313
SWIDTH 1000 0
DWIDTH 16 0
BBX 16 16 0 -2
BITMAP
0082
7844
49ff
4810
7810
4812
49ff
7810
4810
4828
4844
7882
4901
0201
0000
0000
ENDCHAR
STARTCHAR ch-314
ENCODING 314
SWIDTH 1000 0
DWIDTH 16 0
BBX 16 16 0 -2
BITMAP
0050
7850
4850
4a52
7956
4958
4850
48d8
7954
4a52
4890
7911
0211
0c0f
0000
0000
ENDCHAR
STARTCHAR ch-315
ENCODING 315
SWIDTH 1000 0
DWIDTH 16 0
BBX 16 16 0 -2
BITMAP
0082
7c44
45ff
4410
7c10
45ff
4410
7c10
45ff
4410
7c10
4410
0010
0010
0000
0000
ENDCHAR
STARTCHAR ch-316
ENCODING 316
SWIDTH 1000 0
DWIDTH 16 0
BBX 16 16 0 -2
BITMAP
0008
7dfc
4508
45f8
7d08
45f8
4502
7d44
4528
4510
4508
7d47
4582
0100
0000
0000
ENDCHAR
STARTCHAR ch-317
ENCODING 317
SWIDTH 1000 0
DWIDTH 16 0
BBX 16 16 0 -2
BITMAP
0001
79fe
4900
4902
797c
4940
4942
7964
4958
4948
7944
4a52
0461
00c1
0000
0000
ENDCHAR
STARTCHAR ch-318
ENCODING 318
SWIDTH 1000 0
DWIDTH 16 0
BBX 16 16 0 -2
BITMAP
3ffe
2222
2222
3ffe
2012
0fe0
0080
0844
0844
0844
144a
6371
0040
0040
0000
0000
ENDCHAR
STARTCHAR ch-324
ENCODING 324
SWIDTH 1000 0
DWIDTH 16 0
BBX 16 16 0 -2
BITMAP
0111
0092
7c54
4410
44fe
7c82
44fe
4482
7cfe
4482
4482
7c82
448a
0104
0000
0000
ENDCHAR
STARTCHAR ch-325
ENCODING 325
SWIDTH 1000 0
DWIDTH 16 0
BBX 16 16 0 -2
BITMAP
00fe
7c82
44fe
4482
7cfe
4400
44fe
7c10
4410
45ff
7c10
4410
0010
0010
0000
0000
ENDCHAR
STARTCHAR ch-326
ENCODING 326
SWIDTH 1000 0
DWIDTH 16 0
BBX 16 16 0 -2
BITMAP
0010
0010
7dff
4501
4501
7c7c
4400
45ff
7c48
4448
4448
7c88
4509
020f
0000
0000
ENDCHAR
STARTCHAR ch-327
ENCODING 327
SWIDTH 1000 0
DWIDTH 16 0
BBX 16 16 0 -2
BITMAP
0084
7848
49fe
4822
7822
4bfe
4a24
7a21
4bff
4861
48a1
7925
4a22
0020
0000
0000
ENDCHAR
STARTCHAR ch-330
ENCODING 330
SWIDTH 1000 0
DWIDTH 16 0
BBX 16 16 0 -2
BITMAP
00fe
7c82
4482
44fe
4400
7cfe
4482
4482
7cfe
4482
44fe
7c82
4482
0106
0000
0000
ENDCHAR
STARTCHAR ch-331
ENCODING 331
SWIDTH 1000 0
DWIDTH 16 0
BBX 16 16 0 -2
BITMAP
00ca
7b89
4888
4888
7bff
4888
48c8
4889
798a
4a8c
4889
7895
4aa3
0101
0000
0000
ENDCHAR
STARTCHAR ch-332
ENCODING 332
SWIDTH 1000 0
DWIDTH 16 0
BBX 16 16 0 -2
BITMAP
0040
00ff
7902
4a04
49ff
7911
4911
49ff
7848
4848
4848
4848
7889
030f
0000
0000
ENDCHAR
STARTCHAR ch-333
ENCODING 333
SWIDTH 1000 0
DWIDTH 16 0
BBX 16 16 0 -2
BITMAP
00fc
0084
7c84
44fc
4484
7c84
44fc
4484
7c84
44fc
4448
7c48
4449
018f
0000
0000
ENDCHAR
STARTCHAR ch-334
ENCODING 334
SWIDTH 1000 0
DWIDTH 16 0
BBX 16 16 0 -2
BITMAP
0028
0010
7c28
4444
4410
7dff
4448
4488
7d7f
4449
4449
7c4b
0008
0008
0000
0000
ENDCHAR
STARTCHAR ch-335
ENCODING 335
SWIDTH 1000 0
DWIDTH 16 0
BBX 16 16 0 -2
BITMAP
03fe
7a02
4a22
4a22
4bfe
7a22
4a22
4a72
7aaa
4b26
4a22
4a22
7bfe
0202
0000
0000
ENDCHAR
STARTCHAR ch-338
ENCODING 338
SWIDTH 1000 0
DWIDTH 16 0
BBX 16 16 0 -2
BITMAP
0020
7924
48a8
4820
7850
4888
4b06
4820
7924
48a8
4850
7888
0104
0603
0000
0000
ENDCHAR
STARTCHAR ch-340
ENCODING 340
SWIDTH 1000 0
DWIDTH 16 0
BBX 16 16 0 -2
BITMAP
0020
0050
7888
4904
4afa
7c01
4bfe
4a52
7a52
4bfe
4a52
7a52
0252
0206
0000
0000
ENDCHAR
STARTCHAR ch-341
ENCODING 341
SWIDTH 1000 0
DWIDTH 16 0
BBX 16 16 0 -2
BITMAP
0010
03ff
7a01
4a01
4880
79ef
4929
4a29
7929
48ae
4848
7889
0109
020f
0000
0000
ENDCHAR
STARTCHAR ch-342
ENCODING 342
SWIDTH 1000 0
DWIDTH 16 0
BBX 16 16 0 -2
BITMAP
0020
0020
7bfe
4820
4fff
7904
4a42
4cf9
7988
4a88
4850
7820
0050
038e
0000
0000
ENDCHAR
STARTCHAR ch-345
ENCODING 345
SWIDTH 1000 0
DWIDTH 16 0
BBX 16 16 0 -2
BITMAP
03fe
0200
7bff
4a01
4bff
7a00
4a14
4a12
7bff
4a10
4a10
7a28
0244
0583
0000
0000
ENDCHAR
STARTCHAR ch-346
ENCODING 346
SWIDTH 1000 0
DWIDTH 16 0
BBX 16 16 0 -2
BITMAP
01fe
7910
4910
497c
7910
4910
49fe
7910
4910
497c
7910
0110
0210
04fe
0000
0000
ENDCHAR
STARTCHAR ch-347
ENCODING 347
SWIDTH 1000 0
DWIDTH 16 0
BBX 16 16 0 -2
BITMAP
0020
79fe
4820
49fc
7820
4fff
49fc
7904
49fc
4904
49fc
7904
4914
0108
0000
0000
ENDCHAR
STARTCHAR ch-348
ENCODING 348
SWIDTH 1000 0
DWIDTH 16 0
BBX 16 16 0 -2
BITMAP
003c
01e1
7c92
444a
4400
7cfe
4412
45ff
7c12
44fe
4410
7c10
0030
0010
0000
0000
ENDCHAR
STARTCHAR ch-350
ENCODING 350
SWIDTH 1000 0
DWIDTH 16 0
BBX 16 16 0 -2
BITMAP
0020
7820
4fff
4924
7924
4924
4aaa
7c21
4870
48a8
7924
0222
0421
0020
0000
0000
ENDCHAR
STARTCHAR ch-351
ENCODING 351
SWIDTH 1000 0
DWIDTH 16 0
BBX 16 16 0 -2
BITMAP
0020
7bfe
4800
4904
7904
4a8a
4c51
4820
7bfe
4820
4820
7820
0020
0020
0000
0000
ENDCHAR
STARTCHAR ch-352
ENCODING 352
SWIDTH 1000 0
DWIDTH 16 0
BBX 16 16 0 -2
BITMAP
0222
7924
4bff
4820
7bff
4888
4904
4bfa
7d09
4908
4938
7902
0102
01fe
0000
0000
ENDCHAR
STARTCHAR ch-353
ENCODING 353
SWIDTH 1000 0
DWIDTH 16 0
BBX 16 16 0 -2
BITMAP
000c
79f0
4820
4824
4bfe
78a8
48a8
4fff
78a8
48a8
4bfe
7820
4828
01fc
0000
0000
ENDCHAR
STARTCHAR ch-354
ENCODING 354
SWIDTH 1000 0
DWIDTH 16 0
BBX 16 16 0 -2
BITMAP
0850
7c52
48ff
4890
7990
4afe
4890
7890
48fe
4890
4890
7892
48ff
0080
0000
0000
ENDCHAR
STARTCHAR ch-355
ENCODING 355
SWIDTH 1000 0
DWIDTH 16 0
BBX 16 16 0 -2
BITMAP
0404
077e
0404
7f28
1510
24ae
4ffa
0808
0ff8
0808
0ff8
0808
0ff8
0808
0000
0000
ENDCHAR
STARTCHAR ch-357
ENCODING 357
SWIDTH 1000 0
DWIDTH 16 0
BBX 16 16 0 -2
BITMAP
0020
0044
79fe
4924
4924
79fc
4924
4924
79fc
4850
4892
4bff
7810
0010
0000
0000
ENDCHAR
STARTCHAR ch-358
ENCODING 358
SWIDTH 1000 0
DWIDTH 16 0
BBX 16 16 0 -2
BITMAP
0020
7824
4bfe
4820
4820
7820
4fff
4924
7a22
4dfd
4820
4820
7822
4fff
0000
0000
ENDCHAR
STARTCHAR ch-359
ENCODING 359
SWIDTH 1000 0
DWIDTH 16 0
BBX 16 16 0 -2
BITMAP
03fe
0110
7910
49ff
4908
7924
4943
4b81
7800
49fe
4902
79fe
0102
01fe
0000
0000
ENDCHAR
STARTCHAR ch-360
ENCODING 360
SWIDTH 1000 0
DWIDTH 16 0
BBX 16 16 0 -2
BITMAP
0044
019e
7d04
4504
45dc
7d04
4504
45fc
7d54
4450
4490
7c91
0111
0e0f
0000
0000
ENDCHAR
STARTCHAR ch-361
ENCODING 361
SWIDTH 1000 0
DWIDTH 16 0
BBX 16 16 0 -2
BITMAP
0040
7878
4888
49f0
7820
4fff
4820
4822
7bac
4820
48a8
7924
0222
0020
0000
0000
ENDCHAR
STARTCHAR ch-362
ENCODING 362
SWIDTH 1000 0
DWIDTH 16 0
BBX 16 16 0 -2
BITMAP
1ffe
1224
1ffc
0080
0ff8
0082
7fff
0220
0220
7fff
0080
3ffe
0080
0080
0000
0000
ENDCHAR
STARTCHAR ch-363
ENCODING 363
SWIDTH 1000 0
DWIDTH 16 0
BBX 16 16 0 -2
BITMAP
0020
79fe
4820
49fc
4824
7bff
4824
49fc
7820
4920
493e
79a0
4260
0c1f
0000
0000
ENDCHAR
STARTCHAR ch-364
ENCODING 364
SWIDTH 1000 0
DWIDTH 16 0
BBX 16 16 0 -2
BITMAP
79f0
4844
4924
48a8
7800
4822
4fff
4820
7860
4870
48a8
4927
7a22
0020
0000
0000
ENDCHAR
STARTCHAR ch-365
ENCODING 365
SWIDTH 1000 0
DWIDTH 16 0
BBX 16 16 0 -2
BITMAP
03fe
7a22
4a22
4afa
7a22
4bfe
4a02
7afa
4a8a
4a8a
7afa
028a
0202
0406
0000
0000
ENDCHAR
STARTCHAR ch-366
ENCODING 366
SWIDTH 1000 0
DWIDTH 16 0
BBX 16 16 0 -2
BITMAP
0070
0088
7904
4a02
4dfd
7800
4bc2
4a52
7bd2
4a52
4bd2
7a52
4a42
04c6
0000
0000
ENDCHAR
STARTCHAR ch-367
ENCODING 367
SWIDTH 1000 0
DWIDTH 16 0
BBX 16 16 0 -2
BITMAP
7e20
423f
7e42
4812
7e14
4808
5514
6263
1ffc
1004
1ff4
1ff4
1004
1ffc
0000
0000
ENDCHAR
STARTCHAR ch-377
ENCODING 377
SWIDTH 1000 0
DWIDTH 16 0
BBX 16 16 0 -2
BITMAP
0820
7c22
48fc
4824
4828
79ff
4820
48fe
7984
4a84
48fc
7884
4884
00fc
0000
0000
ENDCHAR
STARTCHAR ch-380
ENCODING 380
SWIDTH 1000 0
DWIDTH 16 0
BBX 16 16 0 -2
BITMAP
01fc
0104
79fc
4904
49fc
7800
4fff
4820
7820
4920
493e
79a0
4a60
043f
0000
0000
ENDCHAR
STARTCHAR ch-381
ENCODING 381
SWIDTH 1000 0
DWIDTH 16 0
BBX 16 16 0 -2
BITMAP
01d8
7852
4954
4888
7884
4906
4afb
7820
4820
4bfe
4820
7850
488e
0304
0000
0000
ENDCHAR
STARTCHAR ch-382
ENCODING 382
SWIDTH 1000 0
DWIDTH 16 0
BBX 16 16 0 -2
BITMAP
1000
3ffe
2222
3ffe
0080
1ffc
0080
3ffe
0410
1ffc
0080
7fff
0080
0080
0000
0000
ENDCHAR
STARTCHAR ch-383
ENCODING 383
SWIDTH 1000 0
DWIDTH 16 0
BBX 16 16 0 -2
BITMAP
0088
00fc
3fff
2001
4ffa
0490
194c
0630
1ff8
680f
0ff8
0ff8
0808
0ff8
0000
0000
ENDCHAR
STARTCHAR ch-384
ENCODING 384
SWIDTH 1000 0
DWIDTH 16 0
BBX 16 16 0 -2
BITMAP
3f20
123f
0c22
7f52
158c
240c
4833
0ff8
0808
0ff8
0808
0ff8
0808
0ff8
0000
0000
ENDCHAR
STARTCHAR ch-385
ENCODING 385
SWIDTH 1000 0
DWIDTH 16 0
BBX 16 16 0 -2
BITMAP
00fe
0082
7cfe
4482
44fe
7c82
44fe
4410
7c11
45ff
4428
7c44
4482
0101
0000
0000
ENDCHAR
STARTCHAR ch-386
ENCODING 386
SWIDTH 1000 0
DWIDTH 16 0
BBX 16 16 0 -2
BITMAP
0314
7e7f
4410
7f90
4410
5f12
5122
5152
5f12
5114
5108
5f14
1122
1f41
0000
0000
ENDCHAR
STARTCHAR ch-387
ENCODING 387
SWIDTH 1000 0
DWIDTH 16 0
BBX 16 16 0 -2
BITMAP
0001
07fe
7a10
4a10
4bff
7a10
4a10
4aff
7a81
4aff
4a81
7aff
0481
00ff
0000
0000
ENDCHAR
STARTCHAR ch-388
ENCODING 388
SWIDTH 1000 0
DWIDTH 16 0
BBX 16 16 0 -2
BITMAP
0088
7888
4fff
4888
7888
4bfe
4a22
4a22
7bfe
4a22
4a22
4a22
7bfe
4a02
0000
0000
ENDCHAR
STARTCHAR ch-389
ENCODING 389
SWIDTH 1000 0
DWIDTH 16 0
BBX 16 16 0 -2
BITMAP
0040
00e8
7b88
4889
48ab
7bdc
49c8
49a8
7a88
4894
4894
78a3
48c2
0080
0000
0000
ENDCHAR
STARTCHAR ch-391
ENCODING 391
SWIDTH 1000 0
DWIDTH 16 0
BBX 16 16 0 -2
BITMAP
0408
7a49
492a
4808
7f7f
4908
4a1c
4a2a
7949
4908
4908
4b08
7c80
487f
0000
0000
ENDCHAR
STARTCHAR ch-392
ENCODING 392
SWIDTH 1000 0
DWIDTH 16 0
BBX 16 16 0 -2
BITMAP
0050
0088
7904
4a22
4849
78f8
4800
4fdf
7c51
4a49
4945
7a49
0451
00c3
0000
0000
ENDCHAR
STARTCHAR ch-393
ENCODING 393
SWIDTH 1000 0
DWIDTH 16 0
BBX 16 16 0 -2
BITMAP
0800
7f3c
0824
3e25
7f47
4100
5d00
3e3e
2222
3e22
2214
3e08
2214
3e22
0000
0000
ENDCHAR
STARTCHAR ch-395
ENCODING 395
SWIDTH 1000 0
DWIDTH 16 0
BBX 16 16 0 -2
BITMAP
0020
7bfe
4840
49fc
7904
49fc
4904
79fc
4904
49fc
7904
4fff
0104
0202
0000
0000
ENDCHAR
STARTCHAR ch-396
ENCODING 396
SWIDTH 1000 0
DWIDTH 16 0
BBX 16 16 0 -2
BITMAP
0020
79fe
4820
4bff
7840
4882
49ff
7800
4804
49fe
494a
794a
494a
03ff
0000
0000
ENDCHAR
STARTCHAR ch-397
ENCODING 397
SWIDTH 1000 0
DWIDTH 16 0
BBX 16 16 0 -2
BITMAP
0010
3ed6
2292
22d6
3e92
2292
22fe
3e10
22fc
2228
3e10
2228
00c7
0302
0000
0000
ENDCHAR
STARTCHAR ch-398
ENCODING 398
SWIDTH 1000 0
DWIDTH 16 0
BBX 16 16 0 -2
BITMAP
0010
7dff
4511
44fe
7c10
447c
4410
7dff
4400
44fe
7c82
4482
00fe
0082
0000
0000
ENDCHAR
STARTCHAR ch-399
ENCODING 399
SWIDTH 1000 0
DWIDTH 16 0
BBX 16 16 0 -2
BITMAP
3ffe
2222
3ffe
0080
0ff8
0080
7fff
0000
0ff8
0808
0ff8
1450
2520
461f
0000
0000
ENDCHAR
STARTCHAR ch-401
ENCODING 401
SWIDTH 1000 0
DWIDTH 16 0
BBX 16 16 0 -2
BITMAP
79ff
4901
4a02
48fc
7884
48fc
4884
78fc
4820
4810
4bff
7844
4882
0101
0000
0000
ENDCHAR
STARTCHAR ch-405
ENCODING 405
SWIDTH 1000 0
DWIDTH 16 0
BBX 16 16 0 -2
BITMAP
0010
01ff
7c44
45ff
4400
7cfe
4482
44fe
7c82
44fe
4410
7dff
0010
0010
0000
0000
ENDCHAR
STARTCHAR ch-407
ENCODING 407
SWIDTH 1000 0
DWIDTH 16 0
BBX 16 16 0 -2
BITMAP
0040
00fe
7d42
447e
4442
7c7e
4440
447e
7c40
447f
4555
7d55
0001
0006
0000
0000
ENDCHAR
STARTCHAR ch-409
ENCODING 409
SWIDTH 1000 0
DWIDTH 16 0
BBX 16 16 0 -2
BITMAP
0044
01ef
7c44
4400
44fe
7c82
44fe
4482
7cfe
4410
45ff
7c28
4444
0082
0000
0000
ENDCHAR
STARTCHAR ch-410
ENCODING 410
SWIDTH 1000 0
DWIDTH 16 0
BBX 16 16 0 -2
BITMAP
0010
01ff
7d01
457d
4410
7cfe
4492
4492
7cfe
4492
4492
7cfe
4444
0082
0000
0000
ENDCHAR
STARTCHAR ch-411
ENCODING 411
SWIDTH 1000 0
DWIDTH 16 0
BBX 16 16 0 -2
BITMAP
00a2
0122
7a22
4855
4880
7908
4b08
494f
7948
4948
4948
7948
49a8
011f
0000
0000
ENDCHAR
STARTCHAR ch-412
ENCODING 412
SWIDTH 1000 0
DWIDTH 16 0
BBX 16 16 0 -2
BITMAP
0010
00fe
7c92
45ff
4492
7cfe
45ff
4511
7dff
4454
45ff
7c28
4410
01ef
0000
0000
ENDCHAR
STARTCHAR ch-413
ENCODING 413
SWIDTH 1000 0
DWIDTH 16 0
BBX 16 16 0 -2
BITMAP
0010
01ff
7cc6
44aa
4492
7caa
44fe
4410
7dff
4515
457d
7d05
0101
0103
0000
0000
ENDCHAR
STARTCHAR ch-414
ENCODING 414
SWIDTH 1000 0
DWIDTH 16 0
BBX 16 16 0 -2
BITMAP
0044
7dff
4444
447c
7c10
45ff
4511
7d55
4555
45bb
7d11
4511
0111
0102
0000
0000
ENDCHAR
STARTCHAR ch-415
ENCODING 415
SWIDTH 1000 0
DWIDTH 16 0
BBX 16 16 0 -2
BITMAP
03ff
7848
49fe
494a
794a
49fe
4800
78fc
4800
4bff
78a8
4926
0222
0020
0000
0000
ENDCHAR
STARTCHAR ch-416
ENCODING 416
SWIDTH 1000 0
DWIDTH 16 0
BBX 16 16 0 -2
BITMAP
0492
7e54
4410
45ff
7d01
467d
4444
7c44
447c
4410
44fe
7c10
4412
01ff
0000
0000
ENDCHAR
STARTCHAR ch-417
ENCODING 417
SWIDTH 1000 0
DWIDTH 16 0
BBX 16 16 0 -2
BITMAP
013f
0121
7fe1
493f
4921
7921
4fff
4921
7921
493f
4a94
7c65
4845
0087
0000
0000
ENDCHAR
STARTCHAR ch-418
ENCODING 418
SWIDTH 1000 0
DWIDTH 16 0
BBX 16 16 0 -2
BITMAP
0220
7fff
1ffc
1224
1ffc
3fff
2001
4ffa
0808
0ff8
0808
0ff8
0808
0ff8
0000
0000
ENDCHAR
STARTCHAR ch-419
ENCODING 419
SWIDTH 1000 0
DWIDTH 16 0
BBX 16 16 0 -2
BITMAP
0020
79fc
4924
49fc
7820
4bfe
4a22
7bfe
4820
4800
7aa6
4a91
0484
00fc
0000
0000
ENDCHAR
STARTCHAR ch-421
ENCODING 421
SWIDTH 1000 0
DWIDTH 16 0
BBX 16 16 0 -2
BITMAP
2490
153f
7fe2
4494
4e88
55b7
4080
0ff8
0808
0ff8
0808
0ff8
0808
0ff8
0000
0000
ENDCHAR
STARTCHAR ch-423
ENCODING 423
SWIDTH 1000 0
DWIDTH 16 0
BBX 16 16 0 -2
BITMAP
7890
49fe
4b10
4d10
79fe
4910
4910
49fe
7910
4910
4bfe
7954
4a53
0429
0000
0000
ENDCHAR
STARTCHAR ch-424
ENCODING 424
SWIDTH 1000 0
DWIDTH 16 0
BBX 16 16 0 -2
BITMAP
0050
0154
78d8
4fff
4888
7850
49fc
4820
79fc
4820
4bfe
7850
4888
0106
0000
0000
ENDCHAR
STARTCHAR ch-426
ENCODING 426
SWIDTH 1000 0
DWIDTH 16 0
BBX 16 16 0 -2
BITMAP
79d4
4858
4952
488c
7904
4afa
4c01
49fc
7904
49fc
4800
4888
7850
47ff
0000
0000
ENDCHAR
STARTCHAR ch-427
ENCODING 427
SWIDTH 1000 0
DWIDTH 16 0
BBX 16 16 0 -2
BITMAP
01ff
0044
7dff
4545
45ff
7c00
44fe
4482
7cfe
4482
44fe
7c10
01ff
0010
0000
0000
ENDCHAR
STARTCHAR ch-428
ENCODING 428
SWIDTH 1000 0
DWIDTH 16 0
BBX 16 16 0 -2
BITMAP
001e
7de0
4492
4454
7dff
4501
4682
7cef
452a
46aa
445f
7c82
4502
0002
0000
0000
ENDCHAR
STARTCHAR ch-429
ENCODING 429
SWIDTH 1000 0
DWIDTH 16 0
BBX 16 16 0 -2
BITMAP
0020
7bfe
4850
4a8a
79fc
4a8b
48f8
7888
48f8
4820
78a8
4924
0222
0040
0000
0000
ENDCHAR
STARTCHAR ch-432
ENCODING 432
SWIDTH 1000 0
DWIDTH 16 0
BBX 16 16 0 -2
BITMAP
03e8
7888
488f
4ff2
7a2a
4bea
4a2a
7bea
4a26
4a24
7bea
4e2a
0031
0020
0000
0000
ENDCHAR
STARTCHAR ch-433
ENCODING 433
SWIDTH 1000 0
DWIDTH 16 0
BBX 16 16 0 -2
BITMAP
0088
03fe
7888
4800
4fff
7924
4bfe
4924
7fff
4820
49fe
7820
4820
0020
0000
0000
ENDCHAR
STARTCHAR ch-434
ENCODING 434
SWIDTH 1000 0
DWIDTH 16 0
BBX 16 16 0 -2
BITMAP
00fc
0008
7850
4bff
4851
7992
4830
4bff
7a89
4b77
4a51
7a71
0201
0203
0000
0000
ENDCHAR
STARTCHAR ch-435
ENCODING 435
SWIDTH 1000 0
DWIDTH 16 0
BBX 16 16 0 -2
BITMAP
0020
7bfe
4888
4fff
7800
49fc
4924
79fc
4924
49fc
4820
79fc
4820
07ff
0000
0000
ENDCHAR
STARTCHAR ch-436
ENCODING 436
SWIDTH 1000 0
DWIDTH 16 0
BBX 16 16 0 -2
BITMAP
0100
0100
7bfe
4954
4954
7bfe
4954
4954
7954
4fff
4800
7a52
0252
0251
0000
0000
ENDCHAR
STARTCHAR ch-437
ENCODING 437
SWIDTH 1000 0
DWIDTH 16 0
BBX 16 16 0 -2
BITMAP
0124
78a8
4bff
48a8
7924
4a23
4904
79de
4954
4a94
78bf
4904
0204
0004
0000
0000
ENDCHAR
STARTCHAR ch-438
ENCODING 438
SWIDTH 1000 0
DWIDTH 16 0
BBX 16 16 0 -2
BITMAP
0020
01fc
7924
49fc
4fff
7800
49fc
4904
79fc
49fc
4904
79fc
4888
0104
0000
0000
ENDCHAR
STARTCHAR ch-439
ENCODING 439
SWIDTH 1000 0
DWIDTH 16 0
BBX 16 16 0 -2
BITMAP
03cf
0249
7bcf
4a49
4bcf
7a01
4a79
4a49
7a79
4a49
4a79
7a01
4a01
0203
0000
0000
ENDCHAR
STARTCHAR ch-442
ENCODING 442
SWIDTH 1000 0
DWIDTH 16 0
BBX 16 16 0 -2
BITMAP
0038
0044
7cba
4501
45ff
7d55
4539
45ff
7c00
44fe
4482
7cfe
4482
00fe
0000
0000
ENDCHAR
STARTCHAR ch-443
ENCODING 443
SWIDTH 1000 0
DWIDTH 16 0
BBX 16 16 0 -2
BITMAP
0040
7c7c
4488
45ff
7d44
4592
45ff
7d00
457e
457e
4500
7d7e
4242
047e
0000
0000
ENDCHAR
STARTCHAR ch-444
ENCODING 444
SWIDTH 1000 0
DWIDTH 16 0
BBX 16 16 0 -2
BITMAP
0070
7888
4904
4a02
7dfd
4800
4bde
7a52
4a52
4bde
4904
7904
4a8a
0451
0000
0000
ENDCHAR
STARTCHAR ch-445
ENCODING 445
SWIDTH 1000 0
DWIDTH 16 0
BBX 16 16 0 -2
BITMAP
0408
7fbf
3fbe
1122
1f14
0a08
7f97
0ff8
0808
0ff8
0808
0ff8
0808
0ff8
0000
0000
ENDCHAR
STARTCHAR ch-447
ENCODING 447
SWIDTH 1000 0
DWIDTH 16 0
BBX 16 16 0 -2
BITMAP
3f7e
3f7e
2142
3f7e
2142
3f7e
0820
1ffe
3020
5ffe
1020
1ffe
1020
1ffe
0000
0000
ENDCHAR
STARTCHAR ch-450
ENCODING 450
SWIDTH 1000 0
DWIDTH 16 0
BBX 16 16 0 -2
BITMAP
00fe
0082
7cfe
4400
45ef
7d29
45ff
4410
7dff
4454
4492
7d11
4410
0010
0000
0000
ENDCHAR
STARTCHAR ch-452
ENCODING 452
SWIDTH 1000 0
DWIDTH 16 0
BBX 16 16 0 -2
BITMAP
01fc
7820
4bfe
4820
7bfe
4aaa
4a72
7bfe
4820
4bfe
7820
07ff
0489
0489
0000
0000
ENDCHAR
STARTCHAR ch-455
ENCODING 455
SWIDTH 1000 0
DWIDTH 16 0
BBX 16 16 0 -2
BITMAP
0084
7bff
4884
4bff
7afd
4800
49fe
7860
4893
492c
485c
78aa
4949
0090
0000
0000
ENDCHAR
STARTCHAR ch-457
ENCODING 457
SWIDTH 1000 0
DWIDTH 16 0
BBX 16 16 0 -2
BITMAP
0020
03fe
0202
7afa
48a0
4928
7bfc
4884
48fc
7884
48fc
4884
78fc
0102
0000
0000
ENDCHAR
STARTCHAR ch-458
ENCODING 458
SWIDTH 1000 0
DWIDTH 16 0
BBX 16 16 0 -2
BITMAP
0110
793e
4962
4abe
4fa2
793e
4a88
4fff
7929
4ba9
4d69
792a
4908
0008
0000
0000
ENDCHAR
STARTCHAR ch-460
ENCODING 460
SWIDTH 1000 0
DWIDTH 16 0
BBX 16 16 0 -2
BITMAP
0020
03fe
0248
7bfe
4a48
4a78
7bfe
4a00
4afe
7a92
4afe
4c92
78fe
0183
0000
0000
ENDCHAR
STARTCHAR ch-461
ENCODING 461
SWIDTH 1000 0
DWIDTH 16 0
BBX 16 16 0 -2
BITMAP
3f7e
2142
3d7a
3d7a
3f7e
0820
1ffc
2ffc
0ffc
0820
0ffc
0220
01c0
3f7e
0000
0000
ENDCHAR
STARTCHAR ch-462
ENCODING 462
SWIDTH 1000 0
DWIDTH 16 0
BBX 16 16 0 -2
BITMAP
0040
00fc
0108
7dff
4529
45ff
7c82
44fe
4482
7cfe
4482
447c
7c90
01ef
0000
0000
ENDCHAR
STARTCHAR ch-463
ENCODING 463
SWIDTH 1000 0
DWIDTH 16 0
BBX 16 16 0 -2
BITMAP
00fe
0182
00fa
7cfa
4482
44fe
7c10
45ff
4545
7c92
45ff
447c
7c84
010c
0000
0000
ENDCHAR
STARTCHAR ch-464
ENCODING 464
SWIDTH 1000 0
DWIDTH 16 0
BBX 16 16 0 -2
BITMAP
03fe
0020
7bfe
4aaa
4a72
7888
4a20
4bfe
7e20
4bfc
4a20
7bfc
4a20
03fe
0000
0000
ENDCHAR
STARTCHAR ch-467
ENCODING 467
SWIDTH 1000 0
DWIDTH 16 0
BBX 16 16 0 -2
BITMAP
0088
7bef
4948
4bef
4801
7bef
4a28
4a2f
7be8
4a2f
4be8
4a2f
7a29
4a6f
0000
0000
ENDCHAR
STARTCHAR ch-468
ENCODING 468
SWIDTH 1000 0
DWIDTH 16 0
BBX 16 16 0 -2
BITMAP
0044
01ff
7c44
45ef
4529
7def
4488
45ff
7c88
44ff
4488
7cff
0088
00ff
0000
0000
ENDCHAR
STARTCHAR ch-469
ENCODING 469
SWIDTH 1000 0
DWIDTH 16 0
BBX 16 16 0 -2
BITMAP
0882
13e4
2409
79de
25c9
7ddf
5555
55d5
0ff8
0808
0ff8
0ff8
0808
0ff8
0000
0000
ENDCHAR
STARTCHAR ch-471
ENCODING 471
SWIDTH 1000 0
DWIDTH 16 0
BBX 16 16 0 -2
BITMAP
0080
1ffc
07f0
05f0
07d0
05f0
7fff
0808
7f7f
3e3e
2222
3a3a
2e2e
7f7f
0000
0000
ENDCHAR
STARTCHAR ch-472
ENCODING 472
SWIDTH 1000 0
DWIDTH 16 0
BBX 16 16 0 -2
BITMAP
0092
01ff
0101
797d
4844
487c
78fe
48ba
48fe
7810
48fe
4810
79ff
0129
0000
0000
ENDCHAR
STARTCHAR ch-473
ENCODING 473
SWIDTH 1000 0
DWIDTH 16 0
BBX 16 16 0 -2
BITMAP
07df
0451
77df
5451
57df
75d1
5491
57ff
5545
75d5
55d5
554d
77ed
0453
0000
0000
ENDCHAR
STARTCHAR ch-474
ENCODING 474
SWIDTH 1000 0
DWIDTH 16 0
BBX 16 16 0 -2
BITMAP
03ff
7a01
4bff
4ad6
7afe
4aaa
4afe
7a40
4abf
4b11
7a7d
0255
04ff
0002
0000
0000
ENDCHAR
STARTCHAR ch-475
ENCODING 475
SWIDTH 1000 0
DWIDTH 16 0
BBX 16 16 0 -2
BITMAP
0ff8
0010
0120
00c0
0042
7fff
00c2
0144
0240
0440
0840
1040
0140
0080
0000
0000
ENDCHAR
STARTCHAR ch-476
ENCODING 476
SWIDTH 1000 0
DWIDTH 16 0
BBX 16 16 0 -2
BITMAP
3f10
0128
1228
0c44
0483
7f3a
0500
0c04
0cfe
1404
2404
0408
1410
0820
0000
0000
ENDCHAR
STARTCHAR ch-478
ENCODING 478
SWIDTH 1000 0
DWIDTH 16 0
BBX 16 16 0 -2
BITMAP
1ff8
00c0
7fff
0884
3088
0180
7ffe
4412
4812
57ea
4422
4422
47ea
4004
0000
0000
ENDCHAR
STARTCHAR ch-480
ENCODING 480
SWIDTH 1000 0
DWIDTH 16 0
BBX 16 16 0 -2
BITMAP
7f44
0244
15ff
0844
7f44
0944
09ff
1800
28fe
4882
08fe
0882
08fe
1882
0000
0000
ENDCHAR
STARTCHAR ch-482
ENCODING 482
SWIDTH 1000 0
DWIDTH 16 0
BBX 16 16 0 -2
BITMAP
0800
0808
0ffc
0880
1080
2080
0082
7fff
0080
0140
0220
0410
080e
3004
0000
0000
ENDCHAR
STARTCHAR ch-483
ENCODING 483
SWIDTH 1000 0
DWIDTH 16 0
BBX 16 16 0 -2
BITMAP
0200
0410
0808
1ffc
0404
0408
0ffc
1080
0082
7fff
0220
0418
080e
3004
0000
0000
ENDCHAR
STARTCHAR ch-485
ENCODING 485
SWIDTH 1000 0
DWIDTH 16 0
BBX 16 16 0 -2
BITMAP
1000
1000
1102
1fbf
2422
4422
0422
7fe2
0422
0a22
0922
113e
2122
4000
0000
0000
ENDCHAR
STARTCHAR ch-487
ENCODING 487
SWIDTH 1000 0
DWIDTH 16 0
BBX 16 16 0 -2
BITMAP
1022
11f2
1e22
2822
49e2
0922
7f02
0912
09fa
1412
1212
2212
40a2
0042
0000
0000
ENDCHAR
STARTCHAR ch-488
ENCODING 488
SWIDTH 1000 0
DWIDTH 16 0
BBX 16 16 0 -2
BITMAP
2001
2002
3f7c
2808
4808
0808
087f
7f08
0808
0808
0808
1414
2222
4141
0000
0000
ENDCHAR
STARTCHAR ch-489
ENCODING 489
SWIDTH 1000 0
DWIDTH 16 0
BBX 16 16 0 -2
BITMAP
1004
10fe
1f80
2880
2884
48fe
7f84
0884
0884
08fc
1484
1280
2282
40ff
0000
0000
ENDCHAR
STARTCHAR ch-492
ENCODING 492
SWIDTH 1000 0
DWIDTH 16 0
BBX 16 16 0 -2
BITMAP
1020
1124
1f24
2924
4924
0aaa
7e71
0820
0820
09fe
1420
1220
2022
47ff
0000
0000
ENDCHAR
STARTCHAR ch-493
ENCODING 493
SWIDTH 1000 0
DWIDTH 16 0
BBX 16 16 0 -2
BITMAP
2002
21ff
3e00
2800
48fe
0882
7e82
08fe
0800
0882
1444
1228
33ff
4000
0000
0000
ENDCHAR
STARTCHAR ch-494
ENCODING 494
SWIDTH 1000 0
DWIDTH 16 0
BBX 16 16 0 -2
BITMAP
100c
10f0
1e24
29fe
4870
08a8
7f26
0bff
0848
1488
1250
2230
40cc
0304
0000
0000
ENDCHAR
STARTCHAR ch-495
ENCODING 495
SWIDTH 1000 0
DWIDTH 16 0
BBX 16 16 0 -2
BITMAP
203c
2010
3eff
4824
0842
08bd
7e24
083c
08ff
1481
14bd
22a5
40bd
0082
0000
0000
ENDCHAR
STARTCHAR ch-496
ENCODING 496
SWIDTH 1000 0
DWIDTH 16 0
BBX 16 16 0 -2
BITMAP
0082
1044
11ff
1d11
6955
0939
09ff
3e00
08fe
0882
08fe
0882
14fe
2382
0000
0000
ENDCHAR
STARTCHAR ch-497
ENCODING 497
SWIDTH 1000 0
DWIDTH 16 0
BBX 16 16 0 -2
BITMAP
2044
21ff
3e4c
48fe
0988
08fe
7f88
08fe
0888
08fe
08fe
1444
2238
41c6
0000
0000
ENDCHAR
STARTCHAR ch-498
ENCODING 498
SWIDTH 1000 0
DWIDTH 16 0
BBX 16 16 0 -2
BITMAP
20ff
20a5
3eff
4844
0897
08f4
7f05
08f7
0890
08f4
1497
22f4
4195
0117
0000
0000
ENDCHAR
STARTCHAR ch-499
ENCODING 499
SWIDTH 1000 0
DWIDTH 16 0
BBX 16 16 0 -2
BITMAP
0002
7fff
0100
0200
0200
0404
0ffe
1404
2404
4404
0404
0404
07fc
0404
0000
0000
ENDCHAR
STARTCHAR ch-503
ENCODING 503
SWIDTH 1000 0
DWIDTH 16 0
BBX 16 16 0 -2
BITMAP
003e
0002
7f02
0804
1008
3f08
517f
1108
1108
1f08
1108
0008
0028
0010
0000
0000
ENDCHAR
STARTCHAR ch-504
ENCODING 504
SWIDTH 1000 0
DWIDTH 16 0
BBX 16 16 0 -2
BITMAP
0004
7efe
0810
0810
1010
1e12
33ff
5210
1210
1210
1210
1e10
1010
0010
0000
0000
ENDCHAR
STARTCHAR ch-505
ENCODING 505
SWIDTH 1000 0
DWIDTH 16 0
BBX 16 16 0 -2
BITMAP
0002
00ff
7f24
0824
1024
2024
5f24
1124
1124
1124
1f25
1125
0045
0087
0000
0000
ENDCHAR
STARTCHAR ch-506
ENCODING 506
SWIDTH 1000 0
DWIDTH 16 0
BBX 16 16 0 -2
BITMAP
0002
021c
7f70
0810
1010
2010
5f7f
1110
1110
1110
1f10
1111
0011
001f
0000
0000
ENDCHAR
STARTCHAR ch-507
ENCODING 507
SWIDTH 1000 0
DWIDTH 16 0
BBX 16 16 0 -2
BITMAP
0010
0020
7f7f
0800
1000
203e
5f02
1104
1108
1110
1f20
1141
0081
007f
0000
0000
ENDCHAR
STARTCHAR ch-508
ENCODING 508
SWIDTH 1000 0
DWIDTH 16 0
BBX 16 16 0 -2
BITMAP
0202
7f7f
0808
1008
2008
7f08
2108
2108
2108
2108
3f08
2108
0008
00ff
0000
0000
ENDCHAR
STARTCHAR ch-509
ENCODING 509
SWIDTH 1000 0
DWIDTH 16 0
BBX 16 16 0 -2
BITMAP
0220
7f20
083f
0821
1041
1042
3ea2
5312
120c
1208
1210
1e20
1240
0080
0000
0000
ENDCHAR
ENDFONT
